<svg xmlns="http://www.w3.org/2000/svg" viewBox="0 0 409.02 89.35" class="logo md" style="margin-right: 90px;" width="200px" height="auto"><defs><style>.cls-1{fill:#219fda;}.cls-2{fill:#fff;}</style></defs><g id="Livello_2" data-name="Livello 2"><g id="Livello_1-2" data-name="Livello 1"><path class="cls-1" d="M316.61,28.23a14.16,14.16,0,0,0-18.42-.05,12,12,0,0,0-3.69,9.16V58.15h5.38V37.52a7.88,7.88,0,0,1,1.61-5,6.93,6.93,0,0,1,5.86-2.58,7,7,0,0,1,5.89,2.58Z"></path><path class="cls-1" d="M409,28.23a14.16,14.16,0,0,0-18.42-.05,12,12,0,0,0-3.69,9.16V58.15h5.39V37.52a7.87,7.87,0,0,1,1.59-5,8,8,0,0,1,11.75,0Z"></path><path class="cls-1" d="M165.77,43.64c0-5.88-1.31-10.53-3.9-13.83a13.19,13.19,0,0,0-11-5.07A14.06,14.06,0,0,0,139.5,30a19.06,19.06,0,0,0-4.07,12.45c0,5.15,1.24,9.32,3.69,12.4,2.71,3.38,6.67,5.09,11.78,5.09a14.49,14.49,0,0,0,9.8-3.25,16.82,16.82,0,0,0,4.76-8l.3-1H160l-.14.59a8.19,8.19,0,0,1-3.16,5,9.6,9.6,0,0,1-5.8,1.78,9.06,9.06,0,0,1-7.48-3.23,12.1,12.1,0,0,1-2.51-7.43h24.86Zm-14.87-14a8.35,8.35,0,0,1,7,3.22,11.8,11.8,0,0,1,2.34,7H141a14.45,14.45,0,0,1,2.93-6.92A8.53,8.53,0,0,1,150.9,29.61Z"></path><path class="cls-1" d="M181.19,31.15h7.09V25.93H180.8V17h-5.39v9h-5.18v5.22h5.18V46.56a11.93,11.93,0,0,0,3.69,9.15,12.72,12.72,0,0,0,9.16,3.38V54a6.9,6.9,0,0,1-5.86-2.59,7.88,7.88,0,0,1-1.6-5V31.15Z"></path><path class="cls-1" d="M288.23,43.64c0-5.88-1.3-10.53-3.89-13.83a13.19,13.19,0,0,0-11-5.07A14.08,14.08,0,0,0,262,30a19.06,19.06,0,0,0-4.07,12.45c0,5.15,1.25,9.32,3.7,12.4,2.7,3.38,6.67,5.09,11.78,5.09a14.44,14.44,0,0,0,9.79-3.25,16.83,16.83,0,0,0,4.77-8l.3-1h-5.76l-.14.59a8.24,8.24,0,0,1-3.16,5,9.62,9.62,0,0,1-5.8,1.78,9,9,0,0,1-7.48-3.23,12.29,12.29,0,0,1-2.52-7.43h24.86Zm-14.86-14a8.35,8.35,0,0,1,7,3.22,11.79,11.79,0,0,1,2.33,7H263.47a14.44,14.44,0,0,1,2.92-6.92A8.55,8.55,0,0,1,273.37,29.61Z"></path><path class="cls-1" d="M318.05,25.93h6.63l8.84,24.5,9.11-24.5h6.23l-13.1,32.42h-5Z"></path><path class="cls-1" d="M380.64,43.64c0-5.88-1.31-10.53-3.9-13.83a13.19,13.19,0,0,0-11-5.07A14.07,14.07,0,0,0,354.36,30a19.11,19.11,0,0,0-4.06,12.45c0,5.15,1.24,9.32,3.69,12.4,2.71,3.38,6.67,5.09,11.77,5.09a14.51,14.51,0,0,0,9.81-3.25,16.82,16.82,0,0,0,4.76-8l.3-1h-5.76l-.14.59a8.2,8.2,0,0,1-3.17,5,9.56,9.56,0,0,1-5.8,1.78,9,9,0,0,1-7.47-3.23,12.1,12.1,0,0,1-2.51-7.43h24.86Zm-14.88-14a8.32,8.32,0,0,1,7,3.22,11.73,11.73,0,0,1,2.34,7H355.87a14.54,14.54,0,0,1,2.92-6.92A8.56,8.56,0,0,1,365.76,29.61Z"></path><path class="cls-1" d="M116.94,29.92a7,7,0,0,1,5.88,2.58,7.93,7.93,0,0,1,1.59,5V58.15h5.39V37.34a12.11,12.11,0,0,0-3.6-9.11,12.83,12.83,0,0,0-9.26-3.43,12.69,12.69,0,0,0-9.16,3.39,11.89,11.89,0,0,0-3.69,9.15V58.15h5.38V37.52a7.88,7.88,0,0,1,1.6-5A6.94,6.94,0,0,1,116.94,29.92Z"></path><path class="cls-1" d="M217.45,28.23a12.83,12.83,0,0,0-9.26-3.43,13.25,13.25,0,0,0-7.47,2.05V17h-5.38V58.15h5.38V37.52a7.88,7.88,0,0,1,1.6-5,8,8,0,0,1,11.75,0,7.93,7.93,0,0,1,1.59,5V58.15h5.39V37.34A12.11,12.11,0,0,0,217.45,28.23Z"></path><path class="cls-1" d="M251.36,42.75a14.47,14.47,0,0,0-5.57-2.33L240,39.05a20,20,0,0,1-4.54-1.43,3.32,3.32,0,0,1-1.87-3.08,3.92,3.92,0,0,1,1.86-3.43A8.41,8.41,0,0,1,240.08,30a9.66,9.66,0,0,1,4.35.89,5.14,5.14,0,0,1,2.91,4.21h5.73a9.19,9.19,0,0,0-3.72-7.21,14.42,14.42,0,0,0-8.79-2.7c-4.11,0-7.25.95-9.35,2.83A9.15,9.15,0,0,0,228.09,35c0,3.12,1,5.34,3.15,6.8,1.27.88,3.67,1.7,7.13,2.47l3.59.79a16.23,16.23,0,0,1,4.77,1.62,3.32,3.32,0,0,1,1.68,3A4.33,4.33,0,0,1,245.12,54a13.47,13.47,0,0,1-4.24.56c-2.93,0-5-.75-6.29-2.22a6.88,6.88,0,0,1-1.3-3.24h-5.73a9.31,9.31,0,0,0,3.56,7.3c2.41,1.9,5.79,2.86,10,2.86s7.4-1,9.65-2.89a9.13,9.13,0,0,0,3.36-7.21A7.61,7.61,0,0,0,251.36,42.75Z"></path><path class="cls-1" d="M0,44.67A44.68,44.68,0,1,1,44.68,89.35,44.67,44.67,0,0,1,0,44.67Z"></path><path class="cls-2" d="M54.81,26.67a15.12,15.12,0,0,1,8.93,2.81,9.67,9.67,0,0,1,3.9,7.57h-6a5.41,5.41,0,0,0-3-4.42,9.6,9.6,0,0,0-3.76-.85Z"></path><path class="cls-2" d="M33.94,32.4a7.17,7.17,0,0,0-6.06,2.67,8.1,8.1,0,0,0-1.65,5.19V59.44H20.11V40.07a12.84,12.84,0,0,1,4-9.85,13.7,13.7,0,0,1,9.85-3.63,13.78,13.78,0,0,1,9.94,3.68,13.07,13.07,0,0,1,3.88,9.8v6.67H41.65V40.26A8.16,8.16,0,0,0,40,35.07,7.19,7.19,0,0,0,33.94,32.4Z"></path><path class="cls-2" d="M65.26,58.75c-2.36,2-5.77,3-10.12,3s-7.33-1-9.85-3a9.69,9.69,0,0,1-3.75-7.66h6a7.13,7.13,0,0,0,1.37,3.39c1.3,1.55,2.84,2.34,5.92,2.34a13.82,13.82,0,0,0,4.45-.6,4.53,4.53,0,0,0,3.45-4.52A3.46,3.46,0,0,0,61,48.62a16.88,16.88,0,0,0-5-1.7l-1.17-.26h0V40.78L60,42a15.29,15.29,0,0,1,5.85,2.43,8,8,0,0,1,2.93,6.74A9.57,9.57,0,0,1,65.26,58.75Z"></path></g></g></svg>
